<?xml version="1.0" ?><svg width="30px" height="30px" viewBox="0 0 80 80" xmlns="http://www.w3.org/2000/svg"><title/><g data-name="레이어 2" id="레이어_2"><g data-name="레이어 1" id="레이어_1-2"><path d="M49.41,21.41H30.59a9.18,9.18,0,0,0-9.18,9.18V49.41a9.18,9.18,0,0,0,9.18,9.18H49.41a9.18,9.18,0,0,0,9.18-9.18V30.59A9.18,9.18,0,0,0,49.41,21.41ZM40,52A12,12,0,1,1,52,40,12.05,12.05,0,0,1,40,52Zm12.06-21.1a2.88,2.88,0,1,1,2.88-2.88A2.88,2.88,0,0,1,52.06,30.94Z"/><path d="M0,0V80H80V0ZM63.27,49.41A13.88,13.88,0,0,1,49.41,63.27H30.59A13.88,13.88,0,0,1,16.73,49.41V30.59A13.88,13.88,0,0,1,30.59,16.73H49.41A13.88,13.88,0,0,1,63.27,30.59Z"/><circle cx="40" cy="40" r="7.36"/></g></g></svg>