<svg width="1200" height="828" viewBox="0 0 1200 828" fill="none" xmlns="http://www.w3.org/2000/svg">
<path d="M1150 768C1150 1071.76 903.757 1318 600 1318C296.243 1318 50 1071.76 50 768C50 464.243 296.243 218 600 218C903.757 218 1150 464.243 1150 768Z" fill="#385A5D"/>
<path fill-rule="evenodd" clip-rule="evenodd" d="M600 595C928.609 595 1195 328.609 1195 0C1195 -328.609 928.609 -595 600 -595C271.391 -595 5 -328.609 5 0C5 328.609 271.391 595 600 595ZM600 600C931.371 600 1200 331.371 1200 0C1200 -331.371 931.371 -600 600 -600C268.629 -600 0 -331.371 0 0C0 331.371 268.629 600 600 600Z" fill="#C18C07"/>
</svg>
